<svg width="18" height="14" viewBox="0 0 18 14" fill="none" xmlns="http://www.w3.org/2000/svg">
<path d="M5.71659 13.7789C5.49353 13.7789 5.27041 13.6937 5.10025 13.5236C4.75988 13.1832 4.75988 12.6313 5.10025 12.2908L11.6878 5.70343C12.0282 5.36318 12.58 5.36318 12.9205 5.70343C13.2608 6.0438 13.2608 6.59568 12.9205 6.93611L6.33299 13.5236C6.16277 13.6939 5.93965 13.7789 5.71659 13.7789Z" fill="white"/>
<path d="M13.5299 8.745C12.5435 8.745 11.6235 8.36828 10.9395 7.68426C9.48547 6.23019 9.53534 3.81458 11.0505 2.2995C12.0338 1.31616 13.6937 0.629395 15.0869 0.629395C15.9648 0.629395 16.6994 0.900001 17.2115 1.41208C18.7967 2.99734 17.7272 6.17014 16.3242 7.57315C15.5686 8.3289 14.5762 8.745 13.5299 8.745ZM15.0868 2.3726C14.1648 2.3726 12.9333 2.88188 12.2831 3.53218C11.4476 4.36759 11.3978 5.6773 12.172 6.4517C12.5268 6.80637 13.0091 7.00185 13.5298 7.00185C14.1105 7.00185 14.6651 6.76705 15.0915 6.34059C16.0981 5.33407 16.5956 3.26175 15.9788 2.64482C15.7538 2.41979 15.3696 2.3726 15.0868 2.3726Z" fill="white"/>
<path d="M13.0648 13.9364C12.8417 13.9364 12.6186 13.8513 12.4485 13.6811L6.08245 7.31508C5.74208 6.9747 5.74202 6.42283 6.08245 6.08234C6.42282 5.74209 6.97482 5.74209 7.31507 6.08234L13.6812 12.4484C14.0215 12.7887 14.0215 13.3406 13.6812 13.681C13.511 13.8513 13.2879 13.9364 13.0648 13.9364Z" fill="white"/>
<path d="M4.4707 8.87187C3.83672 8.87187 3.24052 8.62491 2.79225 8.17652L0.255279 5.63961C-0.085093 5.29924 -0.085093 4.74736 0.255279 4.40693C0.595651 4.06668 1.14753 4.06668 1.48796 4.40693L4.02493 6.9439C4.14397 7.06306 4.30239 7.1286 4.47076 7.1286C4.63924 7.1286 4.79754 7.06294 4.91658 6.9439L6.94404 4.91645C7.0632 4.79741 7.12873 4.63899 7.12873 4.47062C7.12873 4.30225 7.0632 4.14383 6.94404 4.0248L4.40707 1.48782C4.06669 1.14745 4.06669 0.595577 4.40707 0.255145C4.74744 -0.0850483 5.29931 -0.0850483 5.63969 0.255145L8.17666 2.79212C8.62499 3.24056 8.87194 3.83659 8.87194 4.47062C8.87194 5.10466 8.62499 5.70074 8.17666 6.14913L6.1492 8.17658C5.70087 8.62497 5.10479 8.87187 4.4707 8.87187Z" fill="white"/>
<path d="M6.14518 7.01663C5.92206 7.01663 5.69911 6.9315 5.52884 6.76134L2.34586 3.57824C2.00548 3.23787 2.00548 2.68599 2.34586 2.3455C2.68623 2.00525 3.2381 2.00531 3.57848 2.3455L6.76146 5.5286C7.10183 5.86897 7.10183 6.42085 6.76146 6.76134C6.59136 6.93161 6.36824 7.01663 6.14518 7.01663Z" fill="white"/>
</svg>
