<svg width="76" height="58" viewBox="0 0 76 58" fill="none" xmlns="http://www.w3.org/2000/svg">
<path d="M68.0448 9.60673H66.3775V7.93957C66.3775 4.01482 63.1847 0.821899 59.26 0.821899H8.1692C4.24443 0.821899 1.05151 4.01494 1.05151 7.93957V41.38C1.05151 45.3047 4.24456 48.4977 8.1692 48.4977H9.83636V50.1649C9.83636 54.0896 13.0294 57.2825 16.954 57.2825H68.0446C71.9693 57.2825 75.1624 54.0896 75.1624 50.1649V16.7244C75.1622 12.7996 71.9694 9.60673 68.0448 9.60673ZM69.9176 50.1647C69.9176 51.1992 69.079 52.0378 68.0447 52.0378H16.954C15.9196 52.0378 15.081 51.1992 15.081 50.1647V48.4976V45.8753V43.253V16.7244C15.081 15.6898 15.9196 14.8513 16.954 14.8513H61.1329H63.7552H66.3775H68.0448C69.0792 14.8513 69.9178 15.6899 69.9178 16.7244V50.1647H69.9176ZM6.29612 41.3799V7.93957C6.29612 6.9051 7.13472 6.0665 8.1692 6.0665H59.26C60.2943 6.0665 61.1329 6.9051 61.1329 7.93957V9.60673H16.954C13.0294 9.60673 9.83636 12.7998 9.83636 16.7244V43.253H8.16932C7.13472 43.253 6.29612 42.4144 6.29612 41.3799Z" fill="#00AC4E"/>
<path d="M68.0451 57.3443H16.9545C12.996 57.3443 9.77557 54.1238 9.77557 50.1654V48.5595H8.16974C4.21131 48.5595 0.990845 45.339 0.990845 41.3806V7.94024C0.990845 3.98181 4.21131 0.761353 8.16974 0.761353H59.2605C63.2188 0.761353 66.4393 3.98181 66.4393 7.94024V9.54618H68.0453C72.0036 9.54618 75.2241 12.7666 75.2241 16.7251V50.1654C75.224 54.1238 72.0036 57.3443 68.0451 57.3443ZM8.16974 0.883653C4.27876 0.883653 1.11327 4.04927 1.11327 7.94024V41.3807C1.11327 45.2715 4.27876 48.4372 8.16974 48.4372H9.89811V50.1655C9.89811 54.0564 13.0636 57.222 16.9546 57.222H68.0451C71.9361 57.222 75.1017 54.0565 75.1017 50.1655V16.7251C75.1017 12.8341 71.9363 9.66861 68.0453 9.66861H66.3168V7.94024C66.3168 4.04927 63.1515 0.883776 59.2605 0.883776H8.16974V0.883653ZM68.0453 52.0997H16.9546C15.888 52.0997 15.0203 51.232 15.0203 50.1654V16.7251C15.0203 15.6585 15.888 14.7908 16.9546 14.7908H68.0453C69.1119 14.7908 69.9795 15.6585 69.9795 16.7251V50.1654C69.9794 51.232 69.1118 52.0997 68.0453 52.0997ZM16.9546 14.9132C15.9555 14.9132 15.1427 15.7261 15.1427 16.7251V50.1654C15.1427 51.1645 15.9555 51.9773 16.9546 51.9773H68.0453C69.0443 51.9773 69.8571 51.1645 69.8571 50.1654V16.7251C69.8571 15.726 69.0443 14.9132 68.0453 14.9132H16.9546ZM9.89811 43.3149H8.16986C7.10331 43.3149 6.23546 42.4471 6.23546 41.3806V7.94024C6.23546 6.87369 7.10319 6.00596 8.16974 6.00596H59.2605C60.327 6.00596 61.1947 6.87369 61.1947 7.94024V9.66861H16.9546C13.0636 9.66861 9.89811 12.8341 9.89811 16.7251V43.3149ZM8.16974 6.12826C7.17065 6.12826 6.35788 6.94102 6.35788 7.94012V41.3806C6.35788 42.3796 7.17077 43.1924 8.16986 43.1924H9.77581V16.7251C9.77581 12.7666 12.9963 9.54618 16.9547 9.54618H61.0724V7.94024C61.0724 6.94114 60.2596 6.12838 59.2606 6.12838H8.16974V6.12826Z" fill="#00AC4E"/>
<path d="M62.4511 44.2714L60.7254 42.5456L52.3698 34.19C51.6383 33.4584 50.4524 33.4584 49.7209 34.19L44.9729 38.9378L36.1033 30.0681C35.3718 29.3365 34.1858 29.3365 33.4544 30.0681L20.2695 43.2529L19.251 44.2714C18.8139 44.7084 18.6382 45.3076 18.7233 45.8752C18.7808 46.2577 18.9564 46.6259 19.251 46.9204L20.3107 47.9799C20.5899 48.2592 20.9355 48.4314 21.2967 48.4975C21.5203 48.5384 21.7499 48.5384 21.9734 48.4975C22.3347 48.4316 22.6803 48.2593 22.9595 47.9799L25.0642 45.8752L27.6865 43.2529L33.4543 37.4852C34.1858 36.7536 35.3718 36.7536 36.1031 37.4852L41.8707 43.2529L44.493 45.8752L46.5979 47.9799C46.8771 48.2592 47.2227 48.4314 47.584 48.4975C47.8075 48.5384 48.0371 48.5384 48.2606 48.4975C48.6219 48.4316 48.9674 48.2593 49.2467 47.9799L50.3064 46.9204C50.6007 46.6258 50.7765 46.2577 50.834 45.8752C50.919 45.3076 50.7436 44.7086 50.3064 44.2714L49.2879 43.2529L48.6815 42.6465L51.0451 40.2826L54.0156 43.2529L56.6379 45.8752L58.7425 47.9799C59.0064 48.2438 59.3298 48.412 59.6692 48.4854C60.1143 48.5818 60.5872 48.5147 60.9928 48.2839C61.1355 48.2026 61.2699 48.1017 61.3916 47.9801L62.4511 46.9205C63.138 46.2337 63.1799 45.1462 62.577 44.4104C62.5376 44.3626 62.4958 44.3162 62.4511 44.2714Z" fill="#00AC4E"/>
<path d="M47.9229 48.5902C47.806 48.5902 47.6885 48.5794 47.5735 48.5584C47.1862 48.4877 46.8341 48.3028 46.5552 48.0239L36.0604 37.5291C35.7182 37.1868 35.2632 36.9984 34.7792 36.9984C34.2953 36.9984 33.8402 37.1868 33.4981 37.5291L23.0033 48.0239C22.7246 48.3028 22.3724 48.4877 21.985 48.5584C21.7552 48.6003 21.5161 48.6003 21.2862 48.5584C20.8989 48.4877 20.5468 48.3028 20.2679 48.0239L19.2082 46.9644C18.9135 46.6698 18.7251 46.2966 18.6633 45.8851C18.5726 45.2801 18.7763 44.6609 19.2082 44.229L33.4116 30.0257C33.7769 29.6604 34.2627 29.4591 34.7793 29.4591C35.296 29.4591 35.7817 29.6604 36.1471 30.0257L44.9735 38.8521L49.6782 34.1475C50.0436 33.7822 50.5292 33.581 51.046 33.581C51.5627 33.581 52.0484 33.7822 52.4137 34.1475L62.495 44.229C62.5395 44.2735 62.5834 44.3217 62.625 44.3722C63.2573 45.1439 63.2014 46.2582 62.495 46.9645L61.4355 48.0241C61.3133 48.1462 61.1748 48.2518 61.0237 48.3378C60.7339 48.5029 60.4036 48.59 60.0683 48.59C60.0682 48.59 60.0682 48.59 60.0682 48.59C59.9301 48.59 59.7917 48.5753 59.6571 48.5461C59.294 48.4676 58.9631 48.2872 58.7 48.0241L51.046 40.3701L48.7689 42.6474L50.3506 44.2291C50.7824 44.6609 50.986 45.2801 50.8953 45.8852C50.8336 46.2964 50.6453 46.6696 50.3506 46.9645L49.2909 48.0241C49.012 48.3029 48.6599 48.4878 48.2726 48.5586C48.1574 48.5794 48.0399 48.5902 47.9229 48.5902ZM34.7793 36.876C35.296 36.876 35.7817 37.0772 36.1471 37.4426L46.6419 47.9374C46.9032 48.1986 47.233 48.3717 47.5957 48.438C47.8109 48.4774 48.0352 48.4774 48.2504 48.438C48.6132 48.3717 48.943 48.1986 49.2042 47.9374L50.2639 46.8778C50.5399 46.6016 50.7163 46.2521 50.7742 45.8669C50.8591 45.2999 50.6684 44.72 50.2639 44.3154L48.5957 42.6471L51.0458 40.1967L58.7865 47.9374C59.0331 48.1838 59.3429 48.3529 59.6829 48.4263C60.116 48.5199 60.58 48.4494 60.9632 48.2313C61.1047 48.1508 61.2346 48.0517 61.349 47.9374L62.4084 46.8778C63.07 46.2164 63.1224 45.1725 62.5304 44.4498C62.4913 44.4025 62.4503 44.3573 62.4084 44.3154L52.3271 34.234C51.9849 33.8917 51.5299 33.7033 51.046 33.7033C50.562 33.7033 50.107 33.8917 49.7648 34.234L44.9735 39.0251L36.0605 30.1121C35.7183 29.7698 35.2633 29.5814 34.7793 29.5814C34.2954 29.5814 33.8405 29.7698 33.4982 30.1121L19.2949 44.3154C18.8903 44.72 18.6995 45.3 18.7846 45.8669C18.8424 46.2522 19.0189 46.6019 19.2949 46.8778L20.3546 47.9374C20.6158 48.1986 20.9456 48.3717 21.3084 48.438C21.5238 48.4774 21.7479 48.4774 21.9632 48.438C22.326 48.3717 22.6559 48.1986 22.917 47.9374L33.4117 37.4426C33.7769 37.0772 34.2627 36.876 34.7793 36.876Z" fill="#00AC4E"/>
<path d="M61.1328 18.13C60.316 17.809 59.427 17.6326 58.4979 17.6326C54.5129 17.6326 51.2709 20.8746 51.2709 24.8594C51.2709 28.8444 54.5129 32.0863 58.4979 32.0863C59.4271 32.0863 60.3161 31.9099 61.1328 31.5889C62.1352 31.195 63.0287 30.5833 63.7551 29.8125C64.9755 28.518 65.7247 26.7747 65.7247 24.8594C65.7247 22.9443 64.9755 21.2008 63.7551 19.9063C63.0287 19.1356 62.1351 18.5238 61.1328 18.13ZM58.4975 26.8417C57.4029 26.8417 56.5154 25.9541 56.5154 24.8594C56.5154 23.7647 57.4029 22.8773 58.4975 22.8773C59.5924 22.8773 60.4799 23.7649 60.4799 24.8594C60.48 25.9541 59.5925 26.8417 58.4975 26.8417Z" fill="#00AC4E"/>
<path d="M58.4984 32.1481C54.4796 32.1481 51.2102 28.8786 51.2102 24.86C51.2102 20.8413 54.4796 17.5719 58.4984 17.5719C59.4144 17.5719 60.3086 17.7407 61.1557 18.0736C62.1491 18.4639 63.0636 19.0833 63.8003 19.8649C65.0811 21.2235 65.7865 22.9974 65.7865 24.86C65.7865 26.7225 65.0811 28.4964 63.8003 29.8551C63.0638 30.6365 62.1495 31.2558 61.1557 31.6465C60.3087 31.9792 59.4148 32.1481 58.4984 32.1481ZM58.4984 17.6943C54.5472 17.6943 51.3326 20.9088 51.3326 24.86C51.3326 28.8112 54.5472 32.0256 58.4984 32.0256C59.3992 32.0256 60.2782 31.8598 61.1111 31.5324C62.0879 31.1485 62.987 30.5395 63.7111 29.7711C64.9705 28.4352 65.664 26.6912 65.664 24.86C65.664 23.0288 64.9705 21.2846 63.7111 19.9489C62.9868 19.1804 62.0876 18.5714 61.1111 18.1876C60.2781 17.8603 59.3992 17.6943 58.4984 17.6943ZM58.4982 26.9036C57.3714 26.9036 56.4548 25.9869 56.4548 24.8601C56.4548 23.7333 57.3714 22.8167 58.4982 22.8167C59.6251 22.8167 60.5418 23.7334 60.5418 24.8601C60.5419 25.9869 59.6251 26.9036 58.4982 26.9036ZM58.4982 22.939C57.439 22.939 56.5772 23.8008 56.5772 24.86C56.5772 25.9193 57.439 26.781 58.4982 26.781C59.5575 26.781 60.4194 25.9192 60.4194 24.86C60.4195 23.8008 59.5576 22.939 58.4982 22.939Z" fill="#00AC4E"/>
</svg>
