<!DOCTYPE svg PUBLIC "-//W3C//DTD SVG 1.1//EN" "http://www.w3.org/Graphics/SVG/1.1/DTD/svg11.dtd">

<!-- Uploaded to: SVG Repo, www.svgrepo.com, Transformed by: SVG Repo Mixer Tools -->
<svg fill="#00AC4E" height="800px" width="800px" version="1.1" id="Icons" xmlns="http://www.w3.org/2000/svg" xmlns:xlink="http://www.w3.org/1999/xlink" viewBox="0 0 32.00 32.00" xml:space="preserve" transform="rotate(0)matrix(-1, 0, 0, 1, 0, 0)" stroke="#000000" stroke-width="0.00032">

<g id="SVGRepo_bgCarrier" stroke-width="0"/>

<g id="SVGRepo_tracerCarrier" stroke-linecap="round" stroke-linejoin="round"/>

<g id="SVGRepo_iconCarrier"> <path d="M21,3H11c-5,0-9,4-9,9v17c0,0.4,0.2,0.7,0.6,0.9C2.7,30,2.9,30,3,30c0.2,0,0.5-0.1,0.7-0.2c3.5-3.1,8-4.8,12.6-4.8H21 c5,0,9-4,9-9v-4C30,7,26,3,21,3z M14,17h-4c-0.6,0-1-0.4-1-1s0.4-1,1-1h4c0.6,0,1,0.4,1,1S14.6,17,14,17z M19,13h-9 c-0.6,0-1-0.4-1-1s0.4-1,1-1h9c0.6,0,1,0.4,1,1S19.6,13,19,13z"/> </g>

</svg>