<!DOCTYPE svg PUBLIC "-//W3C//DTD SVG 1.1//EN" "http://www.w3.org/Graphics/SVG/1.1/DTD/svg11.dtd">

<!-- Uploaded to: SVG Repo, www.svgrepo.com, Transformed by: SVG Repo Mixer Tools -->
<svg width="800px" height="800px" viewBox="0 0 24.00 24.00" fill="none" xmlns="http://www.w3.org/2000/svg" transform="matrix(1, 0, 0, 1, 0, 0)">

<g id="SVGRepo_bgCarrier" stroke-width="0"/>

<g id="SVGRepo_tracerCarrier" stroke-linecap="round" stroke-linejoin="round"/>

<g id="SVGRepo_iconCarrier"> <path opacity="0.1" d="M13 9.5C13 11.433 11.433 13 9.5 13C7.567 13 6 11.433 6 9.5C6 7.567 7.567 6 9.5 6C11.433 6 13 7.567 13 9.5Z" fill="#00AC4E"/> <path d="M3 19C3.69137 16.6928 5.46998 16 9.5 16C13.53 16 15.3086 16.6928 16 19" stroke="#00AC4E" stroke-width="1.8719999999999999" stroke-linecap="round"/> <path d="M13 9.5C13 11.433 11.433 13 9.5 13C7.567 13 6 11.433 6 9.5C6 7.567 7.567 6 9.5 6C11.433 6 13 7.567 13 9.5Z" stroke="#00AC4E" stroke-width="1.8719999999999999"/> <path d="M15 6H21" stroke="#00AC4E" stroke-width="1.8719999999999999" stroke-linecap="round" stroke-linejoin="round"/> <path d="M18 3L18 9" stroke="#00AC4E" stroke-width="1.8719999999999999" stroke-linecap="round" stroke-linejoin="round"/> </g>

</svg>